# xmcd
# 
# Track frame offsets:
#     150
#     16907
#     33827
#     49063
#     69319
#     88689
#     102034
#     115763
#     133018
#     149975
#     170306
#     186235
#     200749
#     219042
#     238227
#     252087
#     268961
#     285544
# 
# Disc length: 4024
# 
# Revision: 1
# Processed by: cddbd v1.5.2PL0 Copyright (c) Steve Scherf et al.
# Submitted via: BonkEnc v1.0.15
# 
DISCID=090fb612
DTITLE=LATINO - Sve najbolje
DYEAR=2000
DGENRE=Zabavni
TTITLE0=Zaboravi me
TTITLE1=A, joj
TTITLE2=Gdje si bila cijelu noć
TTITLE3=Gdje je ljubav tu si ti
TTITLE4=Kad bi tvoji jastuci
TTITLE5=Angela
TTITLE6=Ne kunem ljubav
TTITLE7=Ako se dogodi čudo
TTITLE8=Putuj, putuj
TTITLE9=Divno je biti nekome nesto
TTITLE10=Ako bude sreće
TTITLE11=Ja te volim sve do bola
TTITLE12=Smotala si me
TTITLE13=Anita
TTITLE14=Sve ću žene varati
TTITLE15=Večeras
TTITLE16=Sve je noćas za ljubav stvoreno
TTITLE17=Sretan Božić
EXTD=
EXTT0=
EXTT1=
EXTT2=
EXTT3=
EXTT4=
EXTT5=
EXTT6=
EXTT7=
EXTT8=
EXTT9=
EXTT10=
EXTT11=
EXTT12=
EXTT13=
EXTT14=
EXTT15=
EXTT16=
EXTT17=
PLAYORDER=
